# xmcd CD database file
#
# Track frame offsets:
#	150
#	49567
#	65245
#	92702
#	106810
#	138932
#	151407
#	182940
#	196295
#	211537
#	222380
#	251950
#	267500
#	284375
#	302552
#	338337
#
# Disc length: 4648 seconds
#
# Revision: 1
# Processed by: cddbd v1.5.1PL0 Copyright (c) Steve Scherf et al.
# Submitted via: CDex 1.51
#
DISCID=ed122610
DTITLE=Various Artist - くつろぎ with jazz
DYEAR=2003
DGENRE=Jazz
TTITLE0=キャノンボール・アダレイ（フィーチュアリング　マイルス・ディヴィス）/枯葉
TTITLE1=ナット・キング・コール/アンフォゲッタブル
TTITLE2=マル・ウォルドロン/レフト・アローン
TTITLE3=ジューン・クリスティ/ミスティ
TTITLE4=リー・モーガン/アイ・リメンバー・クリフォード
TTITLE5=サラ・ヴォーン/マイ・フェイヴァリット・シングス
TTITLE6=ビル・エヴァンス〜ボブ・ブルックマイヤー/時の過ぎるまま
TTITLE7=ジュリー・ロンドン/クライ・ミー・ア・リヴァー
TTITLE8=ジョー・パス/ジャンゴ
TTITLE9=クリス・コナー/バードランドの子守唄
TTITLE10=ソニー・クラーク/朝日のようにさわやかに
TTITLE11=ダイナ・ショア/センチメンタル・ジャーニー
TTITLE12=アイク・ケベック/愛の夢
TTITLE13=小林桂/フライ・ミー・トゥ・ザ・ムーン
TTITLE14=ハービー・ハンコック/処女航海
TTITLE15=チェット・ベイカー/マイ・ファニー・ヴァレンタイン
EXTD=YEAR: 2003
EXTT0=
EXTT1=
EXTT2=
EXTT3=
EXTT4=
EXTT5=
EXTT6=
EXTT7=
EXTT8=
EXTT9=
EXTT10=
EXTT11=
EXTT12=
EXTT13=
EXTT14=
EXTT15=
PLAYORDER=
